<svg xmlns="http://www.w3.org/2000/svg" viewBox="0 0 48 48"><path d="M5 12a4 4 0 014-4h30a4 4 0 014 4v24a4 4 0 01-4 4H9a4 4 0 01-4-4V12z" fill="#fff"/><path d="M5 12l19 13L43 12" stroke="#EA4335" stroke-width="2" fill="none"/><path d="M5 12v4l19 13 19-13v-4" fill="#EA4335" opacity=".15"/><path d="M5 12l19 13" stroke="#EA4335" stroke-width="3" fill="none" stroke-linecap="round"/><path d="M43 12L24 25" stroke="#EA4335" stroke-width="3" fill="none" stroke-linecap="round"/><rect x="5" y="8" width="38" height="32" rx="4" stroke="#EA4335" stroke-width="2" fill="none"/><path d="M5 12l19 13 19-13" fill="#EA4335" opacity=".08"/></svg>