<svg xmlns="http://www.w3.org/2000/svg" viewBox="0 0 48 48"><rect width="48" height="48" rx="10" fill="#10A37F"/><path d="M35.3 20.4a7.1 7.1 0 00-.6-5.8 7.2 7.2 0 00-7.7-3.4 7.1 7.1 0 00-5.4-2.4 7.2 7.2 0 00-6.9 5 7.1 7.1 0 00-4.8 3.5 7.2 7.2 0 00.9 8.4 7.1 7.1 0 00.6 5.8A7.2 7.2 0 0019 35a7.1 7.1 0 005.4 2.4 7.2 7.2 0 006.9-5 7.1 7.1 0 004.8-3.5 7.2 7.2 0 00-.9-8.4zm-10.6 14c-1.4 0-2.7-.5-3.7-1.4l.2-.1 6-3.5a1 1 0 00.5-.9v-8.5l2.6 1.5v7.1a5.8 5.8 0 01-5.6 5.8zm-12-5.3a5.7 5.7 0 01-.7-3.8l.2.1 6 3.5a1 1 0 001 0l7.4-4.3v3a.1.1 0 010 .1l-6.2 3.5a5.8 5.8 0 01-7.7-2.1zm-1.6-13.4a5.7 5.7 0 013-2.5v7.2a1 1 0 00.5.9l7.4 4.3-2.5 1.4-6.1-3.5a5.8 5.8 0 01-2.3-7.8zm20.6 4.8L24.3 16l2.5-1.5 6.1 3.6a5.8 5.8 0 01-.8 10.3v-7.2a1 1 0 00-.5-.9zm2.5-3.9l-.2-.1-6-3.5a1 1 0 00-1 0l-7.4 4.3v-3l6.1-3.6a5.8 5.8 0 018.5 6zm-16 5.3l-2.5-1.5v-7a5.8 5.8 0 019.3-4.7l-.2.1-6 3.5a1 1 0 00-.5.9zm1.3-3.8l3.3-1.9 3.3 1.9v3.8l-3.3 1.9-3.3-1.9z" fill="#fff"/></svg>