<svg xmlns="http://www.w3.org/2000/svg" viewBox="0 0 48 48"><rect width="48" height="48" rx="10" fill="#010101"/><path d="M33 18.5a7.5 7.5 0 01-5-2v10.7a8.2 8.2 0 11-7-8.1v4.5a3.8 3.8 0 103 3.7V10h4.2A7.5 7.5 0 0033 15.8z" fill="#fff"/><path d="M31.5 17a6 6 0 01-4-1.6v10.7a6.7 6.7 0 11-5.7-6.6v2a4.7 4.7 0 103.7 4.6V10h2.7A6 6 0 0031.5 14" fill="#25F4EE" opacity=".6"/><path d="M32 17.5a6 6 0 01-4-1.6v10.7a6.7 6.7 0 11-5.7-6.6v2a4.7 4.7 0 103.7 4.6V10.5h2.7A6 6 0 0032 14.5" fill="#FE2C55" opacity=".6"/></svg>