<svg xmlns="http://www.w3.org/2000/svg" viewBox="0 0 48 48"><circle cx="24" cy="24" r="24" fill="#25D366"/><path d="M35 13a15.4 15.4 0 00-24.5 18.4L9 37l5.8-1.5A15.4 15.4 0 0035 13zm-4.3 17.8c-.5 1.4-2.8 2.7-3.9 2.8-1 .1-2.3.5-7.5-1.6s-8.3-8-8.5-8.4c-.3-.4-2-2.6-2-5s1.3-3.6 1.7-4.1c.4-.4 1-.6 1.3-.6h1c.3 0 .7-.1 1.1.8l1.7 4.1c.2.3.3.7.1 1.1l-.6 1-.9 1c-.3.3-.6.6-.3 1.1.4.6 1.6 2.6 3.4 4.2 2.3 2 4.3 2.7 4.9 3 .5.2 1 .2 1.3-.1l1.7-2c.4-.5.8-.4 1.3-.2l3.8 1.8c.5.3.9.4 1 .7.2.2.2 1.4-.3 2.7z" fill="#fff"/></svg>